<svg width="78" height="62" viewBox="0 0 78 62" fill="none" xmlns="http://www.w3.org/2000/svg">
<path fill-rule="evenodd" clip-rule="evenodd" d="M5.10329 10.5552C5.01649 11.8565 4.9317 13.2278 4.85076 14.6034C4.64585 18.0859 4.46403 21.631 4.33884 24.0719C4.25827 25.6429 4.20116 26.7564 4.17645 27.1015C4.09594 28.2258 3.09691 29.0735 1.94505 28.995C0.793184 28.9164 -0.0753279 27.9413 0.00517343 26.817C0.0291949 26.4815 0.083243 25.4244 0.160356 23.9161C0.283171 21.5139 0.464493 17.9673 0.676193 14.3694C0.846801 11.4699 1.03614 8.55943 1.22738 6.26629C1.32281 5.12203 1.42026 4.11236 1.51817 3.32708C1.56694 2.93596 1.61839 2.5794 1.67341 2.27972C1.71826 2.03544 1.79448 1.65425 1.93732 1.32253C1.98125 1.22052 2.07304 1.02395 2.23796 0.815388C2.38012 0.635597 2.7794 0.188469 3.49732 0.0438343C4.33297 -0.124519 4.98175 0.226843 5.31446 0.508164C5.60703 0.75555 5.75985 1.02167 5.81916 1.13142C5.94791 1.36966 6.01117 1.59439 6.03452 1.67885C6.06669 1.79517 6.09152 1.90862 6.1095 1.99591C6.12845 2.08798 6.15663 2.23906 6.17725 2.34957C6.18701 2.40189 6.19507 2.44512 6.19965 2.46869C6.21305 2.53752 6.22177 2.57608 6.22541 2.59219C6.57978 3.56145 7.01342 4.6364 7.41924 5.57243C8.83986 8.84913 10.4306 12.044 12.049 15.2944C12.3766 15.9523 12.7053 16.6125 13.0339 17.2761C13.219 17.6499 13.4003 18.0194 13.5796 18.3847C13.7826 18.7983 13.983 19.2065 14.1832 19.6096C14.4776 13.7936 14.7512 7.02632 14.8187 2.08599C14.8341 0.959074 15.7826 0.0577083 16.9371 0.0727339C18.0917 0.0877595 19.0152 1.01349 18.9998 2.1404C18.9101 8.70792 18.4629 18.3999 18.0822 24.92C18.0779 24.9926 18.0737 25.0679 18.0695 25.1443C18.0531 25.4406 18.0357 25.7542 18.0096 25.9951C17.9933 26.1459 17.9629 26.3834 17.8909 26.6289L17.8885 26.6373C17.8457 26.7842 17.6403 27.4891 16.9092 27.9359C15.8677 28.5725 14.8838 28.1211 14.5408 27.906C14.205 27.6954 13.9742 27.4314 13.8665 27.3037C13.6189 27.0104 13.3498 26.6079 13.0821 26.194C11.8 24.2116 10.7619 22.0938 9.7859 20.1028C9.61206 19.7481 9.44019 19.3975 9.26926 19.0524C8.94895 18.4056 8.62586 17.7568 8.30165 17.1058C7.22758 14.9489 6.14123 12.7673 5.10329 10.5552ZM13.8455 25.6123C13.8455 25.6123 13.8457 25.6107 13.8463 25.6075C13.8458 25.6107 13.8455 25.6122 13.8455 25.6123ZM17.0892 24.7031C17.1063 24.7215 17.1081 24.7256 17.0937 24.7085C17.0922 24.7068 17.0907 24.705 17.0892 24.7031Z" fill="black"/>
<path fill-rule="evenodd" clip-rule="evenodd" d="M29.8378 1.53257C32.2546 -0.504447 35.5485 -0.287712 37.8281 0.8872C39.5168 1.75754 41.675 3.71578 41.9342 6.51226C42.056 7.8267 41.8388 9.2243 41.6654 10.1861C41.4211 11.542 40.9956 13.4596 39.5625 14.9234C38.5448 15.9628 37.2921 16.4888 36.2011 16.7958C35.2514 17.063 34.2604 17.2043 33.4862 17.3147C33.3796 17.3299 33.2771 17.3445 33.1794 17.3588C31.4521 17.6112 29.7211 17.7525 28.0519 17.8833C28.0127 18.9124 28.0284 19.9467 28.0967 20.9778C28.186 22.3225 28.4376 23.5098 28.9334 24.3691C29.4489 25.2627 30.4146 25.6832 32.1836 25.7153C36.1797 25.7876 40.2631 24.5757 44.3467 23.1298C45.4027 22.7559 46.544 23.3621 46.896 24.4838C47.248 25.6055 46.6773 26.8179 45.6214 27.1918C41.4978 28.6518 36.8508 30.0821 32.1149 29.9963C29.9928 29.9579 27.1402 29.4554 25.4965 26.6064C24.505 24.8878 24.1831 22.8962 24.0758 21.2787C23.755 16.4421 24.438 11.4256 26.3922 6.92514C26.3993 6.90881 26.4064 6.89236 26.4136 6.8758C27.0552 5.39784 28.0958 3.00084 29.8378 1.53257ZM28.5568 13.5494C29.9442 13.4369 31.292 13.3126 32.6301 13.1171C32.7416 13.1008 32.8517 13.0849 32.9603 13.0693C33.7582 12.9544 34.4816 12.8502 35.169 12.6568C35.9395 12.44 36.4483 12.1641 36.7686 11.837C37.2197 11.3763 37.4759 10.6603 37.7065 9.38103C37.8761 8.43957 37.9825 7.57633 37.9227 6.93175C37.8602 6.25767 37.1579 5.30088 36.0685 4.73939C34.7518 4.06076 33.2119 4.15456 32.3433 4.88666C31.4659 5.62618 30.7777 7.04817 30.0525 8.71844C29.3857 10.2539 28.8903 11.8775 28.5568 13.5494Z" fill="black"/>
<path fill-rule="evenodd" clip-rule="evenodd" d="M76.5897 0.10609C77.6682 0.466986 78.2525 1.64175 77.8949 2.73001C77.015 5.4074 70.252 24.9734 69.1465 27.6729C69.1252 27.7248 69.1032 27.779 69.0802 27.8354C68.8557 28.3876 68.5484 29.1435 68.1291 29.8259C68.012 30.0165 67.6445 30.5917 66.9132 30.8635C66.4799 31.0246 65.9896 31.0503 65.5138 30.9019C65.0736 30.7647 64.7685 30.5177 64.5841 30.3301C64.2479 29.9882 64.0775 29.6023 64.0033 29.4226C63.9107 29.1986 63.8405 28.9683 63.7864 28.7701C63.6719 28.3504 63.5408 27.7007 63.4191 27.0972C63.348 26.7448 63.2801 26.4081 63.2205 26.1422C63.055 25.4039 62.4874 21.8857 61.8433 17.8933C61.778 17.4887 61.712 17.0793 61.6455 16.6674C61.1592 19.8856 60.6291 22.9358 60.1203 24.7736C59.7295 26.1854 59.2999 27.6003 58.8372 28.9926C58.8365 28.9947 58.8347 29.0005 58.8311 29.0124L58.8301 29.0156C58.824 29.0354 58.8119 29.0749 58.7979 29.1175C58.7699 29.2024 58.7122 29.3702 58.6148 29.5576C58.422 29.9285 57.8794 30.7121 56.7869 30.8171C55.9893 30.8938 55.2248 30.5779 54.72 29.9514C54.336 29.4747 54.2184 28.9557 54.1752 28.7444C54.1313 28.53 54.1062 28.3006 54.0945 28.193C54.093 28.1791 54.0917 28.1673 54.0906 28.1578C54.0869 28.1251 54.0838 28.1011 54.0816 28.0846C53.4863 26.0896 52.397 22.0933 51.77 19.7931C51.6432 19.3278 51.5353 18.9319 51.4542 18.636C51.1096 17.3782 50.673 15.739 50.199 13.9596C49.1482 10.0145 47.914 5.38056 47.0918 2.68785C46.7572 1.59215 47.3662 0.430217 48.452 0.0926055C49.5379 -0.245006 50.6893 0.369548 51.0239 1.46525C51.8685 4.23142 53.146 9.02699 54.2059 13.006C54.6707 14.7508 55.0936 16.3386 55.42 17.5295C55.5046 17.8385 55.6159 18.2468 55.7457 18.7229C55.9818 19.5891 56.2792 20.68 56.5892 21.8076C57.0294 19.6627 57.4982 16.6768 57.9371 13.5857C58.3292 10.8241 58.6843 8.07851 58.9672 5.89173C59.0966 4.89088 59.2109 4.00709 59.3067 3.2924C59.3131 3.16148 59.3316 2.9695 59.3842 2.77237C59.4099 2.67628 59.4759 2.44931 59.6317 2.19781C59.774 1.96801 60.1874 1.40968 60.9963 1.2535C61.8366 1.09125 62.4462 1.48528 62.6899 1.68562C62.9377 1.88926 63.0792 2.10298 63.1344 2.19025C63.3137 2.47409 63.3994 2.77251 63.4147 2.82567C63.4155 2.82851 63.4161 2.83065 63.4165 2.83205C63.4515 2.94948 63.4833 3.07568 63.5112 3.19384C63.6208 3.65851 63.766 4.41388 63.9302 5.32531C64.2634 7.175 64.7101 9.86641 65.1671 12.671C65.4363 14.3236 65.7073 16.0025 65.9609 17.5742C66.2491 19.3605 66.515 21.0083 66.7307 22.3213C69.0558 15.8156 73.297 3.5301 73.9895 1.42309C74.3471 0.334834 75.5113 -0.254806 76.5897 0.10609ZM63.4181 3.45599C63.4181 3.41528 63.4203 3.42599 63.4181 3.47138V3.45599Z" fill="black"/>
<path fill-rule="evenodd" clip-rule="evenodd" d="M50.7704 41.1594C51.7927 41.5939 52.2725 42.7826 51.8421 43.8145C50.0532 48.1029 48.2206 52.3611 46.3896 56.6159C46.3125 56.795 46.2355 56.974 46.1584 57.1531C46.1652 57.1373 46.1434 57.1995 46.0811 57.3765C46.0521 57.4588 46.0145 57.5658 45.967 57.7013C45.8419 58.0577 45.6788 58.5208 45.5104 58.9777C45.3454 59.4258 45.1615 59.9058 44.9953 60.2838C44.9169 60.4619 44.814 60.6837 44.6965 60.8817C44.6452 60.9681 44.5341 61.1493 44.3653 61.3304C44.283 61.4188 44.1135 61.588 43.8573 61.7334C43.6029 61.8778 43.0816 62.0973 42.4223 61.9526C41.1635 61.6764 40.6135 60.6527 40.4171 60.2439C40.313 60.0271 40.2263 59.8026 40.1723 59.6631C40.1674 59.6502 40.1627 59.6381 40.1583 59.6268C40.0911 59.4535 40.0669 59.3987 40.0546 59.375C39.5973 58.4915 39.1598 57.6035 38.7342 56.7207C37.625 54.4201 36.0906 51.1158 34.8917 48.5339C34.6411 47.9943 34.4052 47.4863 34.1909 47.0255C33.7195 46.012 34.1513 44.8047 35.1554 44.3289C36.1595 43.853 37.3556 44.2889 37.8271 45.3023C38.0443 45.7693 38.2824 46.2821 38.5345 46.8251C39.7342 49.4085 41.2514 52.6759 42.3462 54.9466C42.4135 55.0863 42.4809 55.2256 42.5485 55.3646C42.5997 55.2456 42.6509 55.1266 42.7022 55.0076C44.5356 50.7473 46.3599 46.5079 48.1399 42.2411C48.5703 41.2092 49.7481 40.7249 50.7704 41.1594ZM44.0434 58.4977C44.0433 58.4978 44.0421 58.4956 44.0397 58.4911C44.0422 58.4953 44.0434 58.4976 44.0434 58.4977Z" fill="black"/>
</svg>
